<svg width="308" height="302" viewBox="0 0 308 302" fill="none" xmlns="http://www.w3.org/2000/svg">
<path d="M163.228 165.179C162.292 165.179 161.488 164.843 160.816 164.171C160.168 163.523 159.844 162.731 159.844 161.795C159.844 160.859 160.168 160.067 160.816 159.419C161.488 158.747 162.292 158.411 163.228 158.411C164.164 158.411 164.956 158.747 165.604 159.419C166.276 160.067 166.612 160.859 166.612 161.795C166.612 162.731 166.276 163.523 165.604 164.171C164.956 164.843 164.164 165.179 163.228 165.179Z" fill="white"/>
<path d="M73.8181 193.063V160.183H79.8981L94.7381 182.263V160.183H100.938V193.063H94.8581L80.0181 170.983V193.063H73.8181ZM116.563 193.663C114.456 193.663 112.536 193.223 110.803 192.343C109.069 191.49 107.683 190.21 106.643 188.503C105.629 186.796 105.123 184.73 105.123 182.303V179.503C105.123 177.076 105.629 175.023 106.643 173.343C107.683 171.636 109.069 170.356 110.803 169.503C112.536 168.623 114.456 168.183 116.563 168.183C118.669 168.183 120.589 168.623 122.323 169.503C124.083 170.356 125.469 171.636 126.483 173.343C127.523 175.023 128.043 177.076 128.043 179.503V182.303C128.043 184.73 127.523 186.796 126.483 188.503C125.469 190.21 124.083 191.49 122.323 192.343C120.589 193.223 118.669 193.663 116.563 193.663ZM116.563 187.943C117.523 187.943 118.389 187.743 119.163 187.343C119.963 186.916 120.589 186.276 121.043 185.423C121.523 184.543 121.763 183.463 121.763 182.183V179.663C121.763 178.383 121.523 177.316 121.043 176.463C120.589 175.583 119.963 174.943 119.163 174.543C118.389 174.116 117.523 173.903 116.563 173.903C115.629 173.903 114.763 174.116 113.963 174.543C113.189 174.943 112.563 175.583 112.083 176.463C111.629 177.316 111.403 178.383 111.403 179.663V182.183C111.403 183.463 111.629 184.543 112.083 185.423C112.563 186.276 113.189 186.916 113.963 187.343C114.763 187.743 115.629 187.943 116.563 187.943ZM141.536 193.663C139.162 193.663 137.296 193.05 135.936 191.823C134.602 190.596 133.936 188.836 133.936 186.543V162.583H140.216V185.543C140.216 186.423 140.402 187.05 140.776 187.423C141.149 187.77 141.722 187.943 142.496 187.943C143.082 187.943 143.616 187.89 144.096 187.783C144.576 187.676 145.096 187.53 145.656 187.343L146.976 192.583C146.256 192.93 145.402 193.196 144.416 193.383C143.429 193.57 142.469 193.663 141.536 193.663ZM130.256 174.503V168.783H145.816V174.503H130.256ZM183.86 182.343C184.66 184.103 185.78 185.49 187.22 186.503C188.687 187.49 190.394 187.983 192.34 187.983C194.314 187.983 195.82 187.65 196.86 186.983C197.927 186.316 198.46 185.37 198.46 184.143C198.46 183.05 198.14 182.183 197.5 181.543C196.887 180.903 195.834 180.383 194.34 179.983L189.58 178.703C186.94 178.01 184.754 176.93 183.02 175.463C181.314 173.97 180.46 171.876 180.46 169.183C180.46 167.236 180.967 165.543 181.98 164.103C182.994 162.636 184.38 161.516 186.14 160.743C187.9 159.97 189.874 159.583 192.06 159.583C195.047 159.583 197.634 160.343 199.82 161.863C202.007 163.356 203.58 165.236 204.54 167.503L199.34 170.143C198.594 168.703 197.607 167.53 196.38 166.623C195.154 165.716 193.714 165.263 192.06 165.263C190.3 165.263 188.954 165.61 188.02 166.303C187.114 166.996 186.66 167.956 186.66 169.183C186.66 170.276 187.02 171.116 187.74 171.703C188.487 172.29 189.58 172.77 191.02 173.143L195.58 174.343C198.194 175.036 200.354 176.156 202.06 177.703C203.794 179.25 204.66 181.396 204.66 184.143C204.66 186.09 204.114 187.783 203.02 189.223C201.954 190.663 200.487 191.756 198.62 192.503C196.754 193.276 194.66 193.663 192.34 193.663C189.034 193.663 186.194 192.903 183.82 191.383C181.447 189.863 179.7 187.73 178.58 184.983L183.86 182.343ZM210.537 187.343V178.263L226.177 160.183H234.377L210.537 187.343ZM208.857 193.063V160.183H215.137V193.063H208.857ZM227.657 193.063L213.457 174.503H221.377L235.577 193.063H227.657ZM240.264 187.343V178.263L255.904 160.183H264.104L240.264 187.343ZM238.584 193.063V160.183H244.864V193.063H238.584ZM257.384 193.063L243.184 174.503H251.104L265.304 193.063H257.384ZM279.287 193.663C276.754 193.663 274.461 193.13 272.407 192.063C270.354 190.996 268.727 189.423 267.527 187.343C266.327 185.263 265.727 182.756 265.727 179.823V160.183H272.007V179.583C272.007 182.356 272.647 184.423 273.927 185.783C275.234 187.143 277.021 187.823 279.287 187.823C281.527 187.823 283.301 187.143 284.607 185.783C285.914 184.423 286.567 182.356 286.567 179.583V160.183H292.847V179.823C292.847 182.756 292.247 185.263 291.047 187.343C289.847 189.423 288.221 190.996 286.167 192.063C284.114 193.13 281.821 193.663 279.287 193.663Z" fill="white"/>
<path d="M171.531 186.86L173.998 189.89V191.405H151.798V189.89L154.264 186.86V177.77C154.264 173.073 156.768 168.937 160.431 167.604C162.423 167.053 163.527 167.042 165.364 167.604C169.027 168.937 171.531 173.073 171.531 177.77V186.86Z" fill="#FAFAF8"/>
<path d="M76.0657 97.4641L89.3157 120.414C95.8182 116.66 97.9197 108.816 94.1656 102.314C90.4114 95.8116 82.5682 93.71 76.0657 97.4641ZM43.2578 111.306L16.4832 126.764C12.2758 129.193 10.8208 134.623 13.25 138.831L22.0833 154.131C24.5125 158.338 29.9425 159.793 34.1499 157.364L37.9748 155.155L44.5998 166.63C47.029 170.838 52.459 172.293 56.6664 169.863L64.3163 165.447L53.2746 146.322L60.9245 141.905L85.0576 148.372L92.7075 143.955L57.3742 82.7561L49.7243 87.1727L43.2578 111.306Z" fill="#68A18F"/>
</svg>
